<svg xmlns="http://www.w3.org/2000/svg" width="175" height="31" viewBox="0 0 175 31">
  <defs>
    <style>
      .cls-1 {
        fill: #fbce34;
        fill-rule: evenodd;
      }
    </style>
  </defs>
  <path class="cls-1" d="M17.547,0.959L21.154,8.37a1.723,1.723,0,0,0,1.3.955l8.065,1.188a1.753,1.753,0,0,1,.955,2.978L25.634,19.26a1.761,1.761,0,0,0-.495,1.546l1.377,8.145a1.727,1.727,0,0,1-2.5,1.841L16.8,26.946a1.7,1.7,0,0,0-1.6,0L7.988,30.791a1.727,1.727,0,0,1-2.5-1.841l1.377-8.145a1.761,1.761,0,0,0-.495-1.546L0.536,13.491a1.752,1.752,0,0,1,.955-2.978L9.555,9.325a1.723,1.723,0,0,0,1.3-.955l3.607-7.411A1.711,1.711,0,0,1,17.547.959Z"/>
  <path id="Shape_16_copy" data-name="Shape 16 copy" class="cls-1" d="M53.547,0.959L57.154,8.37a1.723,1.723,0,0,0,1.3.955l8.065,1.188a1.753,1.753,0,0,1,.954,2.978L61.634,19.26a1.761,1.761,0,0,0-.495,1.546l1.377,8.145a1.727,1.727,0,0,1-2.5,1.841L52.8,26.946a1.7,1.7,0,0,0-1.6,0l-7.214,3.845a1.727,1.727,0,0,1-2.5-1.841l1.377-8.145a1.762,1.762,0,0,0-.495-1.546l-5.836-5.768a1.752,1.752,0,0,1,.955-2.978l8.065-1.188a1.723,1.723,0,0,0,1.3-.955l3.607-7.411A1.711,1.711,0,0,1,53.547.959Z"/>
  <path id="Shape_16_copy_2" data-name="Shape 16 copy 2" class="cls-1" d="M89.547,0.959L93.154,8.37a1.723,1.723,0,0,0,1.3.955l8.066,1.188a1.752,1.752,0,0,1,.954,2.978L97.634,19.26a1.761,1.761,0,0,0-.495,1.546l1.377,8.145a1.727,1.727,0,0,1-2.5,1.841L88.8,26.946a1.7,1.7,0,0,0-1.6,0l-7.214,3.845a1.727,1.727,0,0,1-2.5-1.841l1.378-8.145a1.762,1.762,0,0,0-.5-1.546l-5.836-5.768a1.752,1.752,0,0,1,.955-2.978l8.065-1.188a1.723,1.723,0,0,0,1.3-.955l3.607-7.411A1.711,1.711,0,0,1,89.547.959Z"/>
  <path id="Shape_16_copy_3" data-name="Shape 16 copy 3" class="cls-1" d="M124.547,0.959l3.607,7.411a1.721,1.721,0,0,0,1.3.955l8.066,1.188a1.752,1.752,0,0,1,.954,2.978l-5.836,5.768a1.763,1.763,0,0,0-.495,1.546l1.378,8.145a1.728,1.728,0,0,1-2.5,1.841L123.8,26.946a1.7,1.7,0,0,0-1.6,0l-7.213,3.845a1.727,1.727,0,0,1-2.5-1.841l1.378-8.145a1.763,1.763,0,0,0-.5-1.546l-5.836-5.768a1.752,1.752,0,0,1,.954-2.978l8.065-1.188a1.724,1.724,0,0,0,1.3-.955l3.607-7.411A1.711,1.711,0,0,1,124.547.959Z"/>
  <path id="Shape_16_copy_4" data-name="Shape 16 copy 4" class="cls-1" d="M160.547,0.959l3.607,7.411a1.721,1.721,0,0,0,1.3.955l8.066,1.188a1.752,1.752,0,0,1,.954,2.978l-5.836,5.768a1.763,1.763,0,0,0-.495,1.546l1.378,8.145a1.728,1.728,0,0,1-2.5,1.841L159.8,26.946a1.7,1.7,0,0,0-1.6,0l-7.213,3.845a1.727,1.727,0,0,1-2.5-1.841l1.378-8.145a1.763,1.763,0,0,0-.495-1.546l-5.836-5.768a1.752,1.752,0,0,1,.954-2.978l8.065-1.188a1.724,1.724,0,0,0,1.3-.955l3.607-7.411A1.711,1.711,0,0,1,160.547.959Z"/>
</svg>
